<svg width="296" height="72" viewBox="0 0 296 72" fill="none" xmlns="http://www.w3.org/2000/svg">
<rect width="296" height="72" rx="20" fill="#5465FF"/>
<path d="M55.0169 20.044C55.4043 20.044 55.5981 20.2344 55.5981 20.6154V50.8132C55.5981 51.1941 55.4043 51.3846 55.0169 51.3846H50.9038C50.4866 51.3846 50.278 51.1941 50.278 50.8132V25.2747H42.3201V50.8132C42.3201 51.1941 42.1115 51.3846 41.6942 51.3846H37.6259C37.2086 51.3846 37 51.1941 37 50.8132V20.6154C37 20.2344 37.2086 20.044 37.6259 20.044H55.0169Z" fill="white"/>
<path d="M75.6753 20C77.8809 20 79.9523 20.4103 81.8896 21.2308C83.8269 22.0513 85.5108 23.1795 86.9415 24.6154C88.4019 26.022 89.5494 27.6777 90.3839 29.5824C91.2184 31.4872 91.6357 33.5238 91.6357 35.6923C91.6357 37.8608 91.2184 39.8974 90.3839 41.8022C89.5494 43.707 88.4019 45.3773 86.9415 46.8132C85.5108 48.2198 83.8269 49.3333 81.8896 50.1538C79.9523 50.9744 77.8809 51.3846 75.6753 51.3846C73.4698 51.3846 71.3984 50.9744 69.4611 50.1538C67.5238 49.3333 65.8249 48.2198 64.3645 46.8132C62.9338 45.3773 61.8013 43.707 60.9667 41.8022C60.1322 39.8974 59.7149 37.8608 59.7149 35.6923C59.7149 33.5238 60.1322 31.4872 60.9667 29.5824C61.8013 27.6777 62.9338 26.022 64.3645 24.6154C65.8249 23.1795 67.5238 22.0513 69.4611 21.2308C71.3984 20.4103 73.4698 20 75.6753 20ZM75.6753 25.2308C74.2149 25.2308 72.829 25.5092 71.5176 26.0659C70.236 26.5934 69.1183 27.3407 68.1646 28.3077C67.2108 29.2454 66.4508 30.359 65.8845 31.6484C65.3182 32.9084 65.0351 34.2564 65.0351 35.6923C65.0351 37.1282 65.3182 38.4908 65.8845 39.7802C66.4508 41.0403 67.2108 42.1392 68.1646 43.0769C69.1183 44.0147 70.236 44.7619 71.5176 45.3187C72.829 45.8755 74.2149 46.1539 75.6753 46.1539C77.1357 46.1539 78.5068 45.8755 79.7884 45.3187C81.0998 44.7619 82.2323 44.0147 83.1861 43.0769C84.1398 42.1392 84.8998 41.0403 85.4661 39.7802C86.0324 38.4908 86.3156 37.1282 86.3156 35.6923C86.3156 34.2564 86.0324 32.9084 85.4661 31.6484C84.8998 30.359 84.1398 29.2454 83.1861 28.3077C82.2323 27.3407 81.0998 26.5934 79.7884 26.0659C78.5068 25.5092 77.1357 25.2308 75.6753 25.2308Z" fill="white"/>
<path d="M101.89 46.1539H111.144L106.539 27.033L101.89 46.1539ZM119.728 46.1539C120.115 46.1539 120.324 46.3297 120.354 46.6813V55.4286C120.354 55.8095 120.145 56 119.728 56H115.66C115.242 56 115.034 55.8095 115.034 55.4286V51.3846H98.0005V55.4286C98.0005 55.8095 97.7918 56 97.3746 56H93.3063C92.889 56 92.6804 55.8095 92.6804 55.4286V46.6813C92.7102 46.3297 92.9188 46.1539 93.3063 46.1539H96.5252L103.41 20.6154C103.529 20.2051 103.783 20 104.17 20H108.909C109.058 20 109.207 20.0586 109.356 20.1758C109.505 20.293 109.609 20.4396 109.669 20.6154L116.554 46.1539H119.728Z" fill="white"/>
<path d="M120.602 51.3846C120.423 51.3846 120.304 51.3407 120.244 51.2527C120.184 51.1355 120.199 51.0037 120.289 50.8571L129.364 35.6923L120.289 20.4835C120.08 20.1612 120.184 20 120.602 20H125.519C125.937 20 126.25 20.1758 126.458 20.5275L132.449 30.9451L138.484 20.5275C138.693 20.1758 138.991 20 139.378 20H144.341C144.758 20 144.863 20.1612 144.654 20.4835L135.534 35.6923L144.654 50.8571C144.743 51.0037 144.758 51.1355 144.699 51.2527C144.639 51.3407 144.52 51.3846 144.341 51.3846H139.378C139.229 51.3846 139.066 51.3407 138.887 51.2527C138.708 51.1355 138.574 51.0037 138.484 50.8571L132.449 40.3956L126.458 50.8571C126.369 51.0037 126.235 51.1355 126.056 51.2527C125.877 51.3407 125.698 51.3846 125.519 51.3846H120.602Z" fill="white"/>
<path d="M190.908 46.1539H200.163L195.558 27.033L190.908 46.1539ZM208.746 46.1539C209.134 46.1539 209.342 46.3297 209.372 46.6813V55.4286C209.372 55.8095 209.164 56 208.746 56H204.678C204.261 56 204.052 55.8095 204.052 55.4286V51.3846H187.019V55.4286C187.019 55.8095 186.81 56 186.393 56H182.325C181.907 56 181.699 55.8095 181.699 55.4286V46.6813C181.728 46.3297 181.937 46.1539 182.325 46.1539H185.543L192.428 20.6154C192.547 20.2051 192.801 20 193.188 20H197.927C198.076 20 198.225 20.0586 198.374 20.1758C198.523 20.293 198.628 20.4396 198.687 20.6154L205.572 46.1539H208.746Z" fill="white"/>
<path d="M243.621 20H258.374C258.791 20 259 20.1905 259 20.5714V24.6154C259 25.0256 258.791 25.2308 258.374 25.2308H253.68V50.7692C253.68 50.9158 253.62 51.0623 253.501 51.2088C253.382 51.326 253.233 51.3846 253.054 51.3846H248.941C248.792 51.3846 248.658 51.326 248.539 51.2088C248.419 51.0623 248.36 50.9158 248.36 50.7692V25.2308H243.621C243.233 25.2308 243.04 25.0256 243.04 24.6154V20.5714C243.04 20.1905 243.233 20 243.621 20Z" fill="white"/>
<path d="M214.338 51.3846V20.6154H220.06V41.4945L232.176 20.6154H237.585V51.3846H231.863V30.5055L219.747 51.3846H214.338Z" fill="white"/>
<path fill-rule="evenodd" clip-rule="evenodd" d="M170.734 25.592H155.212C153.583 25.592 152.263 26.9033 152.263 28.5209V43.9364C152.263 45.554 153.583 46.8653 155.212 46.8653H170.734C172.363 46.8653 173.683 45.554 173.683 43.9364V28.5209C173.683 26.9033 172.363 25.592 170.734 25.592ZM155.212 20.1125C150.536 20.1125 146.745 23.8771 146.745 28.5209V43.9364C146.745 48.5802 150.536 52.3448 155.212 52.3448H170.734C175.41 52.3448 179.2 48.5802 179.2 43.9364V28.5209C179.2 23.8771 175.41 20.1125 170.734 20.1125H155.212Z" fill="white"/>
</svg>
