<svg width="473" height="183" viewBox="0 0 473 183" fill="none" xmlns="http://www.w3.org/2000/svg">
<path d="M467.44 103.088C468.249 103.265 469.049 102.753 469.226 101.944L472.114 88.7564C472.292 87.9472 471.779 87.1475 470.97 86.9702C470.161 86.793 469.361 87.3053 469.184 88.1146L466.616 99.8367L454.894 97.2693C454.085 97.0921 453.285 97.6044 453.108 98.4137C452.931 99.2229 453.443 100.023 454.252 100.2L467.44 103.088ZM3.8261 182.385C22.1867 99.9755 108.283 33.9285 204.878 11.576C301.399 -10.7594 407.723 10.6907 466.498 102.432L469.024 100.814C409.341 7.65508 301.499 -13.8619 204.201 8.65327C106.977 31.1514 19.6039 97.7726 0.897896 181.733L3.8261 182.385Z" fill="white"/>
</svg>
